<svg version="1.1" viewBox="0.0 0.0 1150.997375328084 447.07086614173227" fill="none" stroke="none" stroke-linecap="square" stroke-miterlimit="10" xmlns:xlink="http://www.w3.org/1999/xlink" xmlns="http://www.w3.org/2000/svg"><clipPath id="p.0"><path d="m0 0l1150.9973 0l0 447.07086l-1150.9973 0l0 -447.07086z" clip-rule="nonzero"/></clipPath><g clip-path="url(#p.0)"><path fill="#f98900" d="m0 0l1150.9973 0l0 447.07086l-1150.9973 0z" fill-rule="evenodd"/><path fill="#000000" fill-opacity="0.0" d="m491.48273 141.91393l172.5039 0l0 153.29134l-172.5039 0z" fill-rule="evenodd"/><path fill="#ffffff" d="m525.2247 227.5108q-5.109375 0 -7.671875 -2.921875q-2.5625 -2.921875 -2.5625 -7.5625l0 -50.3125l9.921875 0l0 46.234375q0 3.203125 0.359375 4.53125q0.359375 1.3125 1.28125 1.59375q0.921875 0.28125 3.15625 0.28125l-0.875 8.15625l-3.609375 0zm19.446228 0q-4.96875 0 -8.28125 -3.234375q-3.3125 -3.25 -3.3125 -8.765625q0 -5.203125 3.75 -8.359375q3.765625 -3.15625 8.875 -4.46875q5.125 -1.328125 9.84375 -1.484375q-0.15625 -3.53125 -1.796875 -5.046875q-1.640625 -1.515625 -5.40625 -1.515625q-2.640625 0 -5.15625 0.71875q-2.515625 0.71875 -5.796875 2.3125l-0.875 -8.078125q7.28125 -3.515625 14.5625 -3.515625q7.03125 0 10.75 3.84375q3.71875 3.84375 3.71875 12.234375l0 10.796875q0 3.046875 0.28125 4.375q0.28125 1.3125 0.953125 1.671875q0.6875 0.359375 2.296875 0.359375l1.265625 0l-0.875 8.15625l-3.59375 0q-3.28125 0 -5.53125 -1.234375q-2.234375 -1.25 -3.4375 -3.40625q-1.921875 2.15625 -5.25 3.40625q-3.3125 1.234375 -6.984375 1.234375zm4.15625 -7.59375q1.515625 0 3.4375 -0.75q1.921875 -0.765625 3.359375 -2.140625l0 -9.109375q-4.796875 0.234375 -8.484375 2.078125q-3.671875 1.84375 -3.671875 5.125q0 2.46875 1.28125 3.640625q1.28125 1.15625 4.078125 1.15625zm47.839966 -33.84375q5.6875 0 9.765625 2.796875q4.078125 2.796875 6.15625 7.53125q2.078125 4.71875 2.078125 10.390625q0 5.6875 -2.078125 10.40625q-2.078125 4.71875 -6.15625 7.515625q-4.078125 2.796875 -9.765625 2.796875q-6.3125 0 -11.4375 -3.4375l-0.15625 2.640625l-9.28125 0l0 -60.0l9.921875 0l0 22.953125q4.875 -3.59375 10.953125 -3.59375zm-1.4375 33.28125q4.40625 0 6.84375 -3.4375q2.4375 -3.4375 2.4375 -9.125q0 -5.671875 -2.4375 -9.109375q-2.4375 -3.453125 -6.84375 -3.453125q-5.046875 0 -7.53125 3.359375q-2.46875 3.359375 -2.46875 9.203125q0 5.84375 2.46875 9.203125q2.484375 3.359375 7.53125 3.359375z" fill-rule="nonzero"/><path fill="#ffffff" d="m629.06586 181.62018q3.09375 -4.75 4.234375 -7.140625q1.15625 -2.40625 1.15625 -4.53125q0 -2.296875 -1.3125 -3.59375q-1.296875 -1.3125 -3.59375 -1.3125q-2.5625 0 -4.75 1.234375q-2.1875 1.21875 -4.265625 3.296875l-0.859375 -6.875q2.515625 -2.03125 5.234375 -3.046875q2.71875 -1.015625 6.03125 -1.015625q3.25 0 5.53125 1.359375q2.296875 1.359375 3.4375 3.65625q1.15625 2.296875 1.15625 5.0625q0 3.15625 -1.359375 6.46875q-1.359375 3.296875 -4.765625 8.46875l-4.375 6.65625l11.828125 0l0 6.40625l-23.140625 0l9.8125 -15.09375z" fill-rule="nonzero"/><path fill="#000000" fill-opacity="0.0" d="m490.58905 105.16067l-0.03149414 188.28345" fill-rule="evenodd"/><path stroke="#ffffff" stroke-width="24.0" stroke-linejoin="round" stroke-linecap="butt" d="m490.58905 105.16067l-0.03149414 188.28345" fill-rule="evenodd"/><path fill="#000000" fill-opacity="0.0" d="m669.3642 283.7245l-184.12598 -2.330719" fill-rule="evenodd"/><path stroke="#ffffff" stroke-width="24.0" stroke-linejoin="round" stroke-linecap="butt" d="m669.3642 283.7245l-184.12598 -2.330719" fill-rule="evenodd"/><path fill="#000000" fill-opacity="0.0" d="m663.1701 108.467384l0.440979 187.05511" fill-rule="evenodd"/><path stroke="#ffffff" stroke-width="24.0" stroke-linejoin="round" stroke-linecap="butt" d="m663.1701 108.467384l0.440979 187.05511" fill-rule="evenodd"/><path fill="#000000" fill-opacity="0.0" d="m658.6365 56.47638l-176.0 60.125984" fill-rule="evenodd"/><path stroke="#ffffff" stroke-width="24.0" stroke-linejoin="round" stroke-linecap="butt" d="m658.6365 56.47638l-176.0 60.125984" fill-rule="evenodd"/><path fill="#000000" fill-opacity="0.0" d="m138.6165 323.91168l873.7638 0l0 153.29132l-873.7638 0z" fill-rule="evenodd"/><path fill="#ffffff" d="m336.40952 373.03354l-14.296875 0l-3.578125 10.078125l-5.328125 0l13.390625 -37.328125l5.328125 0l13.390625 37.328125l-5.34375 0l-3.5625 -10.078125zm-1.609375 -4.59375l-5.546875 -15.5625l-5.546875 15.5625l11.09375 0zm32.848877 15.203125q-3.515625 0 -5.140625 -1.8125q-1.625 -1.8125 -1.625 -4.484375l0 -34.234375l4.796875 0l0 31.46875q0 2.34375 0.28125 3.421875q0.296875 1.0625 1.15625 1.4375q0.859375 0.359375 2.78125 0.359375l-0.703125 3.84375l-1.546875 0zm11.944794 0q-3.625 0 -5.84375 -2.125q-2.203125 -2.140625 -2.203125 -5.453125q0 -4.953125 4.6875 -7.078125q4.703125 -2.140625 10.9375 -2.25q0 -3.515625 -1.359375 -4.765625q-1.359375 -1.25 -4.34375 -1.25q-1.65625 0 -3.3125 0.5q-1.65625 0.5 -3.578125 1.84375l-0.6875 -3.890625q1.59375 -1.234375 3.9375 -1.96875q2.359375 -0.75 4.921875 -0.75q3.359375 0 5.359375 1.171875q2.0 1.171875 2.921875 3.890625q0.9375 2.71875 0.9375 7.46875l0 5.328125q0 2.125 0.1875 3.21875q0.1875 1.09375 0.828125 1.6875q0.640625 0.578125 1.96875 0.578125l0.484375 0l-0.75 3.84375l-0.375 0q-2.234375 0 -3.515625 -0.421875q-1.28125 -0.421875 -1.953125 -1.21875q-0.65625 -0.8125 -1.25 -2.203125q-3.296875 3.84375 -8.0 3.84375zm0.90625 -3.84375q1.921875 0 3.703125 -0.953125q1.796875 -0.953125 2.96875 -2.5625l0 -6.234375q-5.765625 0.203125 -8.25 1.515625q-2.46875 1.3125 -2.46875 4.234375q0 2.03125 1.09375 3.015625q1.09375 0.984375 2.953125 0.984375zm31.472473 -23.34375q3.515625 0 6.203125 1.859375q2.703125 1.859375 4.140625 4.984375q1.4375 3.125 1.4375 6.75q0 3.734375 -1.578125 6.859375q-1.5625 3.109375 -4.265625 4.921875q-2.6875 1.8125 -5.9375 1.8125q-2.40625 0 -4.65625 -0.984375q-2.234375 -0.984375 -3.453125 -2.75l-0.53125 3.203125l-4.265625 0l0 -40.0l4.796875 0l0 16.90625q1.4375 -1.65625 3.59375 -2.609375q2.171875 -0.953125 4.515625 -0.953125zm-0.59375 22.921875q3.359375 0 5.40625 -2.6875q2.0625 -2.703125 2.0625 -6.640625q0 -4.0625 -2.0625 -6.6875q-2.046875 -2.640625 -5.40625 -2.640625q-3.296875 0 -5.546875 2.421875q-2.234375 2.421875 -2.234375 6.90625q0 4.640625 2.203125 6.984375q2.21875 2.34375 5.578125 2.34375zm28.753296 4.265625q-4.0 0 -6.9375 -1.78125q-2.9375 -1.796875 -4.484375 -4.875q-1.546875 -3.09375 -1.546875 -6.9375q0 -3.84375 1.546875 -6.9375q1.546875 -3.09375 4.484375 -4.875q2.9375 -1.78125 6.9375 -1.78125q3.9375 0 6.890625 1.78125q2.96875 1.78125 4.515625 4.875q1.546875 3.09375 1.546875 6.9375q0 3.84375 -1.546875 6.9375q-1.546875 3.078125 -4.515625 4.875q-2.953125 1.78125 -6.890625 1.78125zm0 -4.265625q3.828125 0 5.9375 -2.453125q2.109375 -2.453125 2.109375 -6.875q0 -4.421875 -2.109375 -6.875q-2.109375 -2.453125 -5.9375 -2.453125q-3.84375 0 -5.953125 2.453125q-2.109375 2.453125 -2.109375 6.875q0 4.421875 2.109375 6.875q2.109375 2.453125 5.953125 2.453125zm17.908539 -22.390625l3.953125 0l0.578125 4.3125q2.03125 -2.5 3.859375 -3.671875q1.84375 -1.171875 3.875 -1.171875q0.640625 0 1.234375 0.15625l-0.484375 5.28125q-0.6875 -0.171875 -1.59375 -0.171875q-1.984375 0 -3.75 0.890625q-1.75 0.875 -2.546875 2.046875l0 18.453125l-5.125 0l0 -26.125zm22.556427 26.65625q-3.625 0 -5.84375 -2.125q-2.203125 -2.140625 -2.203125 -5.453125q0 -4.953125 4.6875 -7.078125q4.703125 -2.140625 10.9375 -2.25q0 -3.515625 -1.359375 -4.765625q-1.359375 -1.25 -4.34375 -1.25q-1.65625 0 -3.3125 0.5q-1.65625 0.5 -3.578125 1.84375l-0.6875 -3.890625q1.59375 -1.234375 3.9375 -1.96875q2.359375 -0.75 4.921875 -0.75q3.359375 0 5.359375 1.171875q2.0 1.171875 2.921875 3.890625q0.9375 2.71875 0.9375 7.46875l0 5.328125q0 2.125 0.1875 3.21875q0.1875 1.09375 0.828125 1.6875q0.640625 0.578125 1.96875 0.578125l0.484375 0l-0.75 3.84375l-0.375 0q-2.234375 0 -3.515625 -0.421875q-1.28125 -0.421875 -1.953125 -1.21875q-0.65625 -0.8125 -1.25 -2.203125q-3.296875 3.84375 -8.0 3.84375zm0.90625 -3.84375q1.921875 0 3.703125 -0.953125q1.796875 -0.953125 2.96875 -2.5625l0 -6.234375q-5.765625 0.203125 -8.25 1.515625q-2.46875 1.3125 -2.46875 4.234375q0 2.03125 1.09375 3.015625q1.09375 0.984375 2.953125 0.984375zm27.095398 3.84375q-3.46875 0 -5.15625 -1.8125q-1.671875 -1.8125 -1.671875 -4.421875l0 -16.6875l-4.484375 0l0.4375 -3.734375l4.046875 0l0 -6.453125l4.796875 -0.484375l0 6.9375l6.890625 0l0 3.734375l-6.890625 0l0 13.75q0 2.71875 0.3125 3.734375q0.328125 1.015625 1.359375 1.3125q1.046875 0.28125 3.828125 0.28125l1.21875 0l-0.375 3.84375l-4.3125 0zm20.164429 0q-4.0 0 -6.9375 -1.78125q-2.9375 -1.796875 -4.484375 -4.875q-1.546875 -3.09375 -1.546875 -6.9375q0 -3.84375 1.546875 -6.9375q1.546875 -3.09375 4.484375 -4.875q2.9375 -1.78125 6.9375 -1.78125q3.9375 0 6.890625 1.78125q2.96875 1.78125 4.515625 4.875q1.546875 3.09375 1.546875 6.9375q0 3.84375 -1.546875 6.9375q-1.546875 3.078125 -4.515625 4.875q-2.953125 1.78125 -6.890625 1.78125zm0 -4.265625q3.828125 0 5.9375 -2.453125q2.109375 -2.453125 2.109375 -6.875q0 -4.421875 -2.109375 -6.875q-2.109375 -2.453125 -5.9375 -2.453125q-3.84375 0 -5.953125 2.453125q-2.109375 2.453125 -2.109375 6.875q0 4.421875 2.109375 6.875q2.109375 2.453125 5.953125 2.453125zm17.90857 -22.390625l3.953125 0l0.578125 4.3125q2.03125 -2.5 3.859375 -3.671875q1.84375 -1.171875 3.875 -1.171875q0.640625 0 1.234375 0.15625l-0.484375 5.28125q-0.6875 -0.171875 -1.59375 -0.171875q-1.984375 0 -3.75 0.890625q-1.75 0.875 -2.546875 2.046875l0 18.453125l-5.125 0l0 -26.125zm24.851624 24.953125l-10.875 -24.953125l5.328125 0l8.15625 19.40625l7.359375 -19.40625l5.34375 0l-16.0 39.03125l-5.34375 0l6.03125 -14.078125zm37.648254 1.703125q-3.515625 0 -5.140625 -1.8125q-1.625 -1.8125 -1.625 -4.484375l0 -34.234375l4.796875 0l0 31.46875q0 2.34375 0.28125 3.421875q0.296875 1.0625 1.15625 1.4375q0.859375 0.359375 2.78125 0.359375l-0.703125 3.84375l-1.546875 0zm11.944763 0q-3.625 0 -5.84375 -2.125q-2.203125 -2.140625 -2.203125 -5.453125q0 -4.953125 4.6875 -7.078125q4.703125 -2.140625 10.9375 -2.25q0 -3.515625 -1.359375 -4.765625q-1.359375 -1.25 -4.34375 -1.25q-1.65625 0 -3.3125 0.5q-1.65625 0.5 -3.578125 1.84375l-0.6875 -3.890625q1.59375 -1.234375 3.9375 -1.96875q2.359375 -0.75 4.921875 -0.75q3.359375 0 5.359375 1.171875q2.0 1.171875 2.921875 3.890625q0.9375 2.71875 0.9375 7.46875l0 5.328125q0 2.125 0.1875 3.21875q0.1875 1.09375 0.828125 1.6875q0.640625 0.578125 1.96875 0.578125l0.484375 0l-0.75 3.84375l-0.375 0q-2.234375 0 -3.515625 -0.421875q-1.28125 -0.421875 -1.953125 -1.21875q-0.65625 -0.8125 -1.25 -2.203125q-3.296875 3.84375 -8.0 3.84375zm0.90625 -3.84375q1.921875 0 3.703125 -0.953125q1.796875 -0.953125 2.96875 -2.5625l0 -6.234375q-5.765625 0.203125 -8.25 1.515625q-2.46875 1.3125 -2.46875 4.234375q0 2.03125 1.09375 3.015625q1.09375 0.984375 2.953125 0.984375zm31.472473 -23.34375q3.515625 0 6.203125 1.859375q2.703125 1.859375 4.140625 4.984375q1.4375 3.125 1.4375 6.75q0 3.734375 -1.578125 6.859375q-1.5625 3.109375 -4.265625 4.921875q-2.6875 1.8125 -5.9375 1.8125q-2.40625 0 -4.65625 -0.984375q-2.234375 -0.984375 -3.453125 -2.75l-0.53125 3.203125l-4.265625 0l0 -40.0l4.796875 0l0 16.90625q1.4375 -1.65625 3.59375 -2.609375q2.171875 -0.953125 4.515625 -0.953125zm-0.59375 22.921875q3.359375 0 5.40625 -2.6875q2.0625 -2.703125 2.0625 -6.640625q0 -4.0625 -2.0625 -6.6875q-2.046875 -2.640625 -5.40625 -2.640625q-3.296875 0 -5.546875 2.421875q-2.234375 2.421875 -2.234375 6.90625q0 4.640625 2.203125 6.984375q2.21875 2.34375 5.578125 2.34375zm28.753296 4.265625q-4.0 0 -6.9375 -1.78125q-2.9375 -1.796875 -4.484375 -4.875q-1.546875 -3.09375 -1.546875 -6.9375q0 -3.84375 1.546875 -6.9375q1.546875 -3.09375 4.484375 -4.875q2.9375 -1.78125 6.9375 -1.78125q3.9375 0 6.890625 1.78125q2.96875 1.78125 4.515625 4.875q1.546875 3.09375 1.546875 6.9375q0 3.84375 -1.546875 6.9375q-1.546875 3.078125 -4.515625 4.875q-2.953125 1.78125 -6.890625 1.78125zm0 -4.265625q3.828125 0 5.9375 -2.453125q2.109375 -2.453125 2.109375 -6.875q0 -4.421875 -2.109375 -6.875q-2.109375 -2.453125 -5.9375 -2.453125q-3.84375 0 -5.953125 2.453125q-2.109375 2.453125 -2.109375 6.875q0 4.421875 2.109375 6.875q2.109375 2.453125 5.953125 2.453125zm17.90857 -22.390625l3.953125 0l0.578125 4.3125q2.03125 -2.5 3.859375 -3.671875q1.84375 -1.171875 3.875 -1.171875q0.640625 0 1.234375 0.15625l-0.484375 5.28125q-0.6875 -0.171875 -1.59375 -0.171875q-1.984375 0 -3.75 0.890625q-1.75 0.875 -2.546875 2.046875l0 18.453125l-5.125 0l0 -26.125zm22.556396 26.65625q-3.625 0 -5.84375 -2.125q-2.203125 -2.140625 -2.203125 -5.453125q0 -4.953125 4.6875 -7.078125q4.703125 -2.140625 10.9375 -2.25q0 -3.515625 -1.359375 -4.765625q-1.359375 -1.25 -4.34375 -1.25q-1.65625 0 -3.3125 0.5q-1.65625 0.5 -3.578125 1.84375l-0.6875 -3.890625q1.59375 -1.234375 3.9375 -1.96875q2.359375 -0.75 4.921875 -0.75q3.359375 0 5.359375 1.171875q2.0 1.171875 2.921875 3.890625q0.9375 2.71875 0.9375 7.46875l0 5.328125q0 2.125 0.1875 3.21875q0.1875 1.09375 0.828125 1.6875q0.640625 0.578125 1.96875 0.578125l0.484375 0l-0.75 3.84375l-0.375 0q-2.234375 0 -3.515625 -0.421875q-1.28125 -0.421875 -1.953125 -1.21875q-0.65625 -0.8125 -1.25 -2.203125q-3.296875 3.84375 -8.0 3.84375zm0.90625 -3.84375q1.921875 0 3.703125 -0.953125q1.796875 -0.953125 2.96875 -2.5625l0 -6.234375q-5.765625 0.203125 -8.25 1.515625q-2.46875 1.3125 -2.46875 4.234375q0 2.03125 1.09375 3.015625q1.09375 0.984375 2.953125 0.984375zm27.095398 3.84375q-3.46875 0 -5.15625 -1.8125q-1.671875 -1.8125 -1.671875 -4.421875l0 -16.6875l-4.484375 0l0.4375 -3.734375l4.046875 0l0 -6.453125l4.796875 -0.484375l0 6.9375l6.890625 0l0 3.734375l-6.890625 0l0 13.75q0 2.71875 0.3125 3.734375q0.328125 1.015625 1.359375 1.3125q1.046875 0.28125 3.828125 0.28125l1.21875 0l-0.375 3.84375l-4.3125 0zm20.16449 0q-4.0 0 -6.9375 -1.78125q-2.9375 -1.796875 -4.484375 -4.875q-1.546875 -3.09375 -1.546875 -6.9375q0 -3.84375 1.546875 -6.9375q1.546875 -3.09375 4.484375 -4.875q2.9375 -1.78125 6.9375 -1.78125q3.9375 0 6.890625 1.78125q2.96875 1.78125 4.515625 4.875q1.546875 3.09375 1.546875 6.9375q0 3.84375 -1.546875 6.9375q-1.546875 3.078125 -4.515625 4.875q-2.953125 1.78125 -6.890625 1.78125zm0 -4.265625q3.828125 0 5.9375 -2.453125q2.109375 -2.453125 2.109375 -6.875q0 -4.421875 -2.109375 -6.875q-2.109375 -2.453125 -5.9375 -2.453125q-3.84375 0 -5.953125 2.453125q-2.109375 2.453125 -2.109375 6.875q0 4.421875 2.109375 6.875q2.109375 2.453125 5.953125 2.453125zm17.908508 -22.390625l3.953125 0l0.578125 4.3125q2.03125 -2.5 3.859375 -3.671875q1.84375 -1.171875 3.875 -1.171875q0.640625 0 1.234375 0.15625l-0.484375 5.28125q-0.6875 -0.171875 -1.59375 -0.171875q-1.984375 0 -3.75 0.890625q-1.75 0.875 -2.546875 2.046875l0 18.453125l-5.125 0l0 -26.125zm24.851624 24.953125l-10.875 -24.953125l5.328125 0l8.15625 19.40625l7.359375 -19.40625l5.34375 0l-16.0 39.03125l-5.34375 0l6.03125 -14.078125zm16.699219 -4.484375l5.75 0l0 5.65625l-5.75 0l0 -5.65625z" fill-rule="nonzero"/></g></svg>