<svg version="1.1" viewBox="0.0 0.0 206.70603674540683 261.2729658792651" fill="none" stroke="none" stroke-linecap="square" stroke-miterlimit="10" xmlns:xlink="http://www.w3.org/1999/xlink" xmlns="http://www.w3.org/2000/svg"><clipPath id="p.0"><path d="m0 0l206.70604 0l0 261.27298l-206.70604 0l0 -261.27298z" clip-rule="nonzero"/></clipPath><g clip-path="url(#p.0)"><path fill="#000000" fill-opacity="0.0" d="m0 0l206.70604 0l0 261.27298l-206.70604 0z" fill-rule="evenodd"/><path fill="#000000" fill-opacity="0.0" d="m16.068022 98.273506l172.50394 0l0 153.29135l-172.50394 0z" fill-rule="evenodd"/><path fill="#ffffff" d="m49.809994 183.87038q-5.109375 0 -7.671875 -2.921875q-2.5625 -2.921875 -2.5625 -7.5625l0 -50.3125l9.921875 0l0 46.234375q0 3.203125 0.359375 4.53125q0.359375 1.3125 1.28125 1.59375q0.921875 0.28125 3.15625 0.28125l-0.875 8.15625l-3.609375 0zm19.446232 0q-4.96875 0 -8.281254 -3.234375q-3.3125 -3.25 -3.3125 -8.765625q0 -5.203125 3.75 -8.359375q3.7656288 -3.15625 8.875004 -4.46875q5.125 -1.328125 9.84375 -1.484375q-0.15625 -3.53125 -1.796875 -5.046875q-1.640625 -1.515625 -5.40625 -1.515625q-2.640625 0 -5.15625 0.71875q-2.515625 0.71875 -5.796879 2.3125l-0.875 -8.078125q7.281254 -3.515625 14.562504 -3.515625q7.03125 0 10.75 3.84375q3.71875 3.84375 3.71875 12.234375l0 10.796875q0 3.046875 0.28125 4.375q0.28125 1.3125 0.953125 1.671875q0.6875 0.359375 2.296875 0.359375l1.265625 0l-0.875 8.15625l-3.59375 0q-3.28125 0 -5.53125 -1.234375q-2.234375 -1.25 -3.4375 -3.40625q-1.921875 2.15625 -5.25 3.40625q-3.3125 1.234375 -6.984375 1.234375zm4.15625 -7.59375q1.515625 0 3.4375 -0.75q1.921875 -0.765625 3.359375 -2.140625l0 -9.109375q-4.796875 0.234375 -8.484375 2.078125q-3.671875 1.84375 -3.671875 5.125q0 2.46875 1.28125 3.640625q1.28125 1.15625 4.078125 1.15625zm47.839966 -33.84375q5.6875 0 9.765625 2.796875q4.078125 2.796875 6.15625 7.53125q2.078125 4.71875 2.078125 10.390625q0 5.6875 -2.078125 10.40625q-2.078125 4.71875 -6.15625 7.515625q-4.078125 2.796875 -9.765625 2.796875q-6.3125 0 -11.4375 -3.4375l-0.15625 2.640625l-9.28125 0l0 -60.0l9.921875 0l0 22.953125q4.875 -3.59375 10.953125 -3.59375zm-1.4375 33.28125q4.40625 0 6.84375 -3.4375q2.4375 -3.4375 2.4375 -9.125q0 -5.671875 -2.4375 -9.109375q-2.4375 -3.453125 -6.84375 -3.453125q-5.046875 0 -7.53125 3.359375q-2.46875 3.359375 -2.46875 9.203125q0 5.84375 2.46875 9.203125q2.484375 3.359375 7.53125 3.359375z" fill-rule="nonzero"/><path fill="#ffffff" d="m153.65115 137.97975q3.09375 -4.75 4.234375 -7.140625q1.15625 -2.40625 1.15625 -4.53125q0 -2.296875 -1.3125 -3.59375q-1.296875 -1.3125 -3.59375 -1.3125q-2.5625 0 -4.75 1.234375q-2.1875 1.21875 -4.265625 3.296875l-0.859375 -6.875q2.515625 -2.03125 5.234375 -3.046875q2.71875 -1.015625 6.03125 -1.015625q3.25 0 5.53125 1.359375q2.296875 1.359375 3.4375 3.65625q1.15625 2.296875 1.15625 5.0625q0 3.15625 -1.359375 6.46875q-1.359375 3.296875 -4.765625 8.46875l-4.375 6.65625l11.828125 0l0 6.40625l-23.140625 0l9.8125 -15.09375z" fill-rule="nonzero"/><path fill="#000000" fill-opacity="0.0" d="m15.174353 61.520245l-0.031496048 188.28346" fill-rule="evenodd"/><path stroke="#ffffff" stroke-width="24.0" stroke-linejoin="round" stroke-linecap="butt" d="m15.174353 61.520245l-0.031496048 188.28346" fill-rule="evenodd"/><path fill="#000000" fill-opacity="0.0" d="m193.94951 240.08406l-184.12599 -2.3307037" fill-rule="evenodd"/><path stroke="#ffffff" stroke-width="24.0" stroke-linejoin="round" stroke-linecap="butt" d="m193.94951 240.08406l-184.12599 -2.3307037" fill-rule="evenodd"/><path fill="#000000" fill-opacity="0.0" d="m187.75542 64.826965l0.4409485 187.05511" fill-rule="evenodd"/><path stroke="#ffffff" stroke-width="24.0" stroke-linejoin="round" stroke-linecap="butt" d="m187.75542 64.826965l0.4409485 187.05511" fill-rule="evenodd"/><path fill="#000000" fill-opacity="0.0" d="m183.22179 12.8359585l-176.0 60.125984" fill-rule="evenodd"/><path stroke="#ffffff" stroke-width="24.0" stroke-linejoin="round" stroke-linecap="butt" d="m183.22179 12.8359585l-176.0 60.125984" fill-rule="evenodd"/></g></svg>